<svg version="1.1" id="Layer_1" xmlns="http://www.w3.org/2000/svg" xmlns:xlink="http://www.w3.org/1999/xlink" x="0px" y="0px"
	 width="100%" viewBox="34 10 443 474" enable-background="new 0 0 510 494" xml:space="preserve">
<path fill="#000000" opacity="1.000000" stroke="none" 
	d="
M329.000000,495.000000 
	C220.666687,495.000000 112.833359,494.979126 5.000180,495.095367 
	C1.576350,495.099060 0.902985,494.423889 0.905281,491.000031 
	C1.013942,329.000122 1.013925,167.000153 0.905322,5.000258 
	C0.903027,1.576975 1.575771,0.903098 4.999864,0.905312 
	C172.333084,1.013502 339.666412,1.013488 506.999634,0.905381 
	C510.422638,0.903170 511.097046,1.575400 511.094757,4.999745 
	C510.986053,166.999634 510.986084,328.999603 511.094635,490.999512 
	C511.096924,494.422272 510.425995,495.104797 507.000214,495.097015 
	C447.833710,494.962219 388.666809,495.000000 329.000000,495.000000 
z"/>
<g transform="rotate(45 255 247)">
<path fill="#FDFDFD" opacity="1.000000" stroke="none" 
	d="
M264.999512,227.992081 
	C282.538055,244.070068 299.806641,259.917145 317.115265,275.720367 
	C334.298462,291.409058 351.515503,307.060730 368.729553,322.715607 
	C385.944061,338.370941 403.166199,354.017914 420.398560,369.653595 
	C431.844696,380.039124 443.356598,390.352570 454.760132,400.784607 
	C463.024872,408.345154 463.084534,415.925049 455.134827,423.875366 
	C450.186340,428.824158 445.239105,433.774200 440.288574,438.720947 
	C433.107544,445.896423 425.895020,445.994080 418.816803,438.449188 
	C408.812042,427.784851 399.104645,416.841217 389.286865,406.001831 
	C366.974762,381.368011 344.668823,356.728607 322.367767,332.084747 
	C290.701019,297.091248 259.002594,262.126129 227.446243,227.033310 
	C224.732346,224.015274 223.324493,224.408157 220.805283,227.091690 
	C213.053711,235.348938 205.067230,243.397964 193.487015,246.252716 
	C193.173264,246.330048 192.881210,246.704926 192.601624,246.680710 
	C183.937088,245.929962 181.066971,252.430237 177.501282,258.387573 
	C172.003799,267.572449 166.257034,276.612762 160.439636,285.600220 
	C154.350159,295.007996 143.283676,296.120728 135.204865,288.183899 
	C127.122391,280.243469 119.165230,272.175507 111.153145,264.163422 
	C96.896370,249.906616 82.631371,235.658051 68.388496,221.387390 
	C64.722916,217.714630 61.297676,213.856613 61.116364,208.262787 
	C60.922390,202.278473 62.489990,197.346466 68.122955,193.951294 
	C79.923592,186.838684 91.452965,179.277130 103.208382,172.087402 
	C105.411751,170.739777 106.544647,169.318436 106.796501,166.750031 
	C107.848724,156.019562 113.181328,147.347351 120.501068,139.835556 
	C132.009720,128.024948 143.628937,116.319817 155.333908,104.703598 
	C163.397400,96.701248 172.650604,90.786545 184.373337,89.916054 
	C186.564407,89.753357 187.370621,88.436813 188.386353,86.788513 
	C195.824707,74.717796 203.332565,62.688931 210.928528,50.716675 
	C215.809448,43.023674 227.246063,41.414143 233.822586,47.917984 
	C257.754700,71.585564 281.456696,95.485649 305.285522,119.257881 
	C311.357758,125.315674 311.676117,138.666290 301.999847,144.056686 
	C290.420258,150.507385 279.426727,158.004822 268.102020,164.922348 
	C265.497864,166.513077 264.277283,168.295395 263.857361,171.518021 
	C262.456268,182.269379 256.896942,191.019684 249.383362,198.606522 
	C246.805664,201.209366 244.109467,203.694885 241.148727,206.540192 
	C249.193329,213.767792 256.970184,220.754852 264.999512,227.992081 
z"/>
</g>
</svg>
