<svg version="1.1" id="Layer_1" xmlns="http://www.w3.org/2000/svg" xmlns:xlink="http://www.w3.org/1999/xlink" x="0px" y="0px"
	 width="100%" viewBox="0 0 904 904" enable-background="new 0 0 904 904" xml:space="preserve">
<path fill="#000000" opacity="1.000000" stroke="none" 
	d="
M905.000000,899.000000 
	C905.000000,900.999451 905.000000,902.998962 905.000000,904.998779 
	C603.747375,904.999207 302.494751,904.999207 1.000000,904.999207 
	C1.000000,683.306519 1.000000,461.612976 1.354048,239.419128 
	C10.827933,244.488663 20.013563,249.954117 29.052776,255.651825 
	C44.001083,265.074249 58.523323,275.024933 66.723061,291.521179 
	C72.049271,302.236481 79.462624,311.272430 88.379890,319.137024 
	C90.546974,321.048309 92.891060,322.758881 95.670715,324.973633 
	C100.691711,309.761993 107.558968,296.939392 123.143997,291.048889 
	C121.001678,286.659821 118.579735,282.672272 117.176529,278.353668 
	C116.598091,276.573456 117.545929,273.105377 118.974533,272.135254 
	C121.306091,270.551941 123.886368,271.631531 125.411133,274.643951 
	C134.381058,292.365540 146.626495,307.343781 162.478470,319.460968 
	C182.088196,334.450500 203.619629,343.777466 228.699341,343.953003 
	C233.116318,343.983917 237.766663,344.657318 241.894913,346.166992 
	C261.503876,353.337830 276.197968,367.488739 291.189514,381.293243 
	C300.470856,389.839722 310.185364,397.964966 320.154053,405.701233 
	C328.958191,412.533813 338.907623,417.523285 349.844055,420.166809 
	C368.287384,424.624939 377.992584,407.121460 375.135345,394.734192 
	C372.875031,384.934845 366.634735,377.412231 360.217316,370.580841 
	C348.572937,358.185150 335.843292,346.797546 323.403412,335.163727 
	C311.771667,324.285675 299.230164,314.289581 288.357910,302.713623 
	C275.316345,288.827972 266.237579,271.986938 257.360931,255.187454 
	C256.974152,254.455490 256.308899,253.543686 256.480133,252.905167 
	C256.994019,250.988831 257.392944,248.256668 258.723419,247.575974 
	C259.934692,246.956284 262.944733,248.066879 264.033936,249.362793 
	C266.361694,252.132355 267.869476,255.574295 269.873169,258.636108 
	C276.596283,268.909607 282.833893,279.562500 290.278625,289.288422 
	C303.370209,306.391388 321.089081,318.809174 336.671539,333.402618 
	C347.553894,343.594238 357.673523,354.596313 368.308350,365.058929 
	C370.962463,367.670074 374.017120,370.197327 377.362579,371.719086 
	C385.887360,375.596802 394.680389,378.884735 403.807434,382.587769 
	C403.921021,381.147766 404.082428,379.588196 404.161377,378.024475 
	C404.939697,362.600433 398.570709,348.911041 392.402100,335.616608 
	C377.441071,303.372864 361.395599,271.632263 345.784943,239.689972 
	C338.666901,225.125137 327.006714,215.622940 311.929352,210.475098 
	C295.246033,204.778915 278.320892,199.795288 261.558472,194.325485 
	C234.078461,185.358337 206.569534,176.469482 179.216858,167.125961 
	C159.494308,160.388855 140.425003,152.077911 122.988380,140.441299 
	C105.558449,128.809158 88.039978,117.304260 70.779587,105.425003 
	C53.671196,93.650337 36.872139,81.427147 19.862535,69.507538 
	C13.686335,65.179512 7.293818,61.160179 1.000000,57.000000 
	C1.000000,38.337925 1.000000,19.675852 1.000000,1.010334 
	C302.254608,1.006889 603.509216,1.006889 905.000000,1.006889 
	C905.000000,249.026810 905.000000,497.053680 904.751587,745.896484 
	C887.645447,737.857971 870.559326,729.407715 853.987854,720.046509 
	C833.484253,708.463867 813.405579,696.128967 793.147156,684.112427 
	C780.024170,676.328369 765.538269,673.314392 750.579224,672.211487 
	C739.336914,671.382629 728.428833,673.513184 717.527771,676.207642 
	C704.348267,679.465210 692.015747,684.825562 680.563416,691.728699 
	C666.725708,700.069641 653.008179,708.659302 637.543335,713.396790 
	C617.553772,719.520325 597.238586,724.583130 577.053040,730.063660 
	C567.550476,732.643677 558.404602,735.988342 550.211060,741.624268 
	C539.274048,749.147278 537.440857,762.534973 546.487854,772.085876 
	C550.647949,776.477722 556.421204,777.876038 562.367859,777.736877 
	C577.408020,777.385010 592.282104,775.980408 606.999817,772.382568 
	C621.370117,768.869629 635.971558,766.279419 650.508911,763.478271 
	C665.927490,760.507385 681.343506,761.194031 696.630554,764.441467 
	C698.119568,764.757751 699.200134,766.996765 700.470337,768.343262 
	C699.013733,769.638000 697.733093,771.311218 696.040405,772.097900 
	C694.858826,772.647034 693.083862,772.127991 691.623779,771.836548 
	C678.578735,769.232666 665.702454,770.408447 652.784302,773.026978 
	C631.039246,777.434814 609.322693,782.123108 587.411255,785.510742 
	C576.715942,787.164246 565.502991,787.183716 554.714355,786.082214 
	C541.536255,784.736816 533.414917,775.017944 531.633301,761.744934 
	C531.423767,760.183350 530.384277,758.228271 529.113464,757.395142 
	C520.320984,751.630310 511.284393,746.238281 502.482056,740.487915 
	C491.048889,733.018738 479.851868,725.186584 468.382324,717.775208 
	C458.149200,711.162903 448.177368,703.805359 434.816711,705.108948 
	C427.927094,705.781128 421.218536,709.982971 419.011627,716.033691 
	C416.682770,722.418945 420.176575,727.220276 424.286530,730.991699 
	C437.199860,742.841492 450.233032,754.594604 463.745117,765.748779 
	C478.332031,777.790161 493.433502,789.215454 508.452942,800.723633 
	C524.907715,813.331482 545.058777,818.198364 563.547119,826.538330 
	C577.283325,832.734741 591.157288,838.642578 605.108643,844.338989 
	C612.905273,847.522339 620.802734,851.154724 628.993530,852.461548 
	C635.819641,853.550659 643.218323,852.003601 650.221985,850.800720 
	C660.281616,849.073120 670.328857,847.026062 680.175720,844.356506 
	C703.834290,837.942505 727.258667,830.640076 750.998718,824.559753 
	C767.956360,820.216675 785.444946,819.089111 801.748230,826.902100 
	C813.474304,832.521606 824.847656,839.231934 835.444336,846.768921 
	C850.888245,857.753418 865.403503,870.035156 880.491821,881.531189 
	C888.467712,887.608154 896.818481,893.192993 905.000000,899.000000 
M411.887634,452.542908 
	C443.862488,461.776184 475.837341,471.009491 507.847565,480.252991 
	C505.067627,490.643494 502.261169,500.567352 499.778809,510.571655 
	C497.327301,520.451538 499.232086,529.205811 507.070099,536.322571 
	C507.946075,537.117859 508.398285,539.317932 507.966949,540.457825 
	C505.731995,546.363770 503.000824,552.081360 500.749054,557.981567 
	C499.753174,560.591003 498.487091,561.335205 495.642181,561.298767 
	C489.126221,561.215149 483.254364,563.142761 479.277252,568.854858 
	C466.978668,586.518677 473.204559,606.102356 493.753052,613.503784 
	C515.663757,621.395874 537.694458,628.955383 559.681396,636.635376 
	C576.464722,642.497681 593.213501,648.466431 610.090393,654.046753 
	C613.716614,655.245728 617.979065,655.867737 621.690125,655.236633 
	C640.700317,652.003662 648.003479,623.384277 634.657471,611.094666 
	C628.905212,605.797668 629.069885,601.248291 630.094849,595.234131 
	C630.402588,593.428223 630.729980,591.612854 630.843567,589.789062 
	C631.192993,584.179993 631.998718,580.154236 639.391724,578.880310 
	C648.242249,577.355225 651.706970,569.310364 653.926208,561.204712 
	C662.760193,528.939453 671.505249,496.649384 680.494263,464.427368 
	C683.518311,453.587158 682.480469,444.102692 673.672485,436.216583 
	C672.697510,435.343658 671.843933,433.103821 672.284790,432.078949 
	C675.356323,424.938751 678.784424,417.951904 682.034607,411.050873 
	C689.619141,412.067322 694.096558,410.370178 700.287842,404.051636 
	C711.742920,392.361084 710.728088,365.910461 689.681152,359.123260 
	C679.346680,355.790588 669.070374,352.265289 658.840210,348.623566 
	C630.152161,338.411194 601.511292,328.066132 572.831360,317.830963 
	C562.879639,314.279419 554.145569,315.774963 546.714355,323.899719 
	C538.274414,333.127441 537.236816,352.960815 546.700623,359.929596 
	C553.628906,365.031342 553.488770,370.220886 552.182251,376.934967 
	C551.515076,380.363312 551.106262,383.853455 550.787964,387.334595 
	C550.523071,390.231140 549.559570,391.693695 546.246460,391.905609 
	C539.702332,392.324219 534.313110,395.554993 531.419861,401.400665 
	C528.947632,406.395538 527.456909,411.910278 525.846741,417.289276 
	C523.722656,424.384827 521.905884,431.572388 519.771973,439.399017 
	C473.762482,421.116028 428.516663,403.136536 382.627930,384.901520 
	C382.924896,386.486176 382.983948,387.450317 383.288147,388.329651 
	C390.548187,409.314789 375.727478,438.230927 344.359619,429.339874 
	C329.938202,425.252167 317.694580,417.087646 305.864380,408.246246 
	C301.555450,405.025940 297.441345,401.544891 292.835327,397.860382 
	C292.835327,399.100922 292.661530,399.672028 292.861115,400.041473 
	C296.491730,406.762268 300.140228,413.473938 303.870880,420.139435 
	C304.288422,420.885498 305.133728,421.615875 305.937714,421.885986 
	C311.837006,423.867920 317.738159,425.861725 323.711853,427.600586 
	C332.911316,430.278442 342.176331,432.730072 351.400787,435.323151 
	C371.324646,440.923920 391.240387,446.553619 411.887634,452.542908 
M128.284454,374.742828 
	C134.664703,376.561340 141.044952,378.379883 147.680389,380.271149 
	C148.873825,368.543762 153.250824,359.536407 164.645187,356.759125 
	C177.515442,353.622162 184.999863,361.920349 191.450897,371.706146 
	C193.438858,369.553772 195.242676,367.644073 196.998276,365.691010 
	C200.769180,361.496002 205.503601,359.608063 211.096725,359.514923 
	C221.645660,359.339264 229.051071,364.633820 234.421082,373.125305 
	C237.672089,378.266022 240.425491,383.721405 243.629349,389.440369 
	C253.051529,378.727600 263.776703,375.347809 276.841858,382.597900 
	C276.199524,381.046387 275.531952,379.989319 274.597839,379.286560 
	C266.463715,373.166870 258.557587,366.682190 250.017624,361.185516 
	C244.276779,357.490387 237.838684,354.244019 230.690781,354.326447 
	C202.785706,354.648315 178.468796,344.617126 156.963074,327.813568 
	C147.503128,320.422028 139.704544,310.913483 131.044708,302.475891 
	C130.045975,301.502808 127.822113,300.341248 127.078400,300.787445 
	C122.332901,303.634491 116.595131,305.997406 113.515327,310.220062 
	C105.887215,320.678772 102.465919,332.877380 103.445526,346.009613 
	C104.615105,361.688446 112.567749,371.074066 128.284454,374.742828 
M285.092560,471.752991 
	C293.440491,474.136505 301.282623,472.025055 308.876709,468.773224 
	C312.173798,467.361389 316.204895,465.950287 318.080475,463.265717 
	C322.959045,456.282898 326.828949,448.595337 331.509857,440.480591 
	C321.002167,437.211731 311.386627,434.336517 301.870087,431.164337 
	C299.910767,430.511261 297.771454,429.107910 296.675354,427.424957 
	C294.423035,423.966675 293.031250,419.959381 290.908020,416.403290 
	C285.778564,407.812256 281.873474,398.309357 273.150330,392.326202 
	C268.136353,388.887146 259.848389,387.605194 256.301483,390.463257 
	C250.966537,394.762115 247.547653,400.181122 249.683945,407.399414 
	C251.469681,413.433228 253.421906,419.445068 255.762680,425.281189 
	C259.653717,434.982574 263.861816,444.558594 268.037628,454.143311 
	C271.392426,461.843567 277.442383,467.090271 285.092560,471.752991 
M209.994278,369.499451 
	C204.638885,370.289825 201.134415,373.800903 199.882782,378.531891 
	C198.738312,382.857819 198.266327,387.857056 199.257233,392.153870 
	C201.644241,402.504486 205.411850,412.530273 207.980011,422.847015 
	C211.794235,438.169556 219.345657,451.486725 229.413025,463.310486 
	C234.193848,468.925323 240.549225,473.521637 248.717331,471.437042 
	C253.578613,470.196411 258.099243,467.620941 262.684692,465.682922 
	C258.551208,456.128296 254.540695,447.355530 250.948547,438.414734 
	C247.352448,429.464081 244.337555,420.280487 240.769394,411.317841 
	C236.793579,401.331177 232.858231,391.296417 228.188995,381.628510 
	C224.806793,374.625397 219.435822,369.362335 209.994278,369.499451 
M413.958588,667.362671 
	C406.993896,673.236755 406.288391,679.415344 412.049011,686.317993 
	C415.028564,689.888184 418.194489,693.341736 421.605835,696.490967 
	C422.741333,697.539246 425.028198,698.120789 426.575409,697.819641 
	C439.348206,695.334045 451.299530,696.813416 462.360809,704.100098 
	C473.913574,711.710632 485.559326,719.180969 497.207550,726.645203 
	C505.159485,731.740906 513.191956,736.710815 521.175293,741.757751 
	C525.001465,744.176575 528.797119,746.643677 532.671997,749.130920 
	C534.920410,745.413208 536.870789,742.188293 539.084045,738.528687 
	C537.305359,736.987793 535.544922,735.302917 533.623413,733.827759 
	C527.475098,729.107361 521.210571,724.537354 515.093872,719.776917 
	C502.512909,709.985291 490.208923,699.823547 477.394653,690.350098 
	C465.829346,681.800049 453.808594,673.855774 441.849701,665.851929 
	C433.911957,660.539368 419.063324,660.576538 413.958588,667.362671 
M168.650116,366.203522 
	C160.634155,368.342010 157.548096,372.018677 157.242950,380.210297 
	C157.144653,382.849060 157.329666,385.551422 157.804047,388.148193 
	C159.088470,395.179291 160.664993,402.156525 162.004333,409.178253 
	C165.094971,425.381561 170.186646,440.511261 182.501831,452.455048 
	C188.995987,458.753326 198.447388,460.868378 206.580322,456.896667 
	C209.735641,455.355774 210.335617,453.799988 208.822189,450.349548 
	C205.163864,442.008972 201.819839,433.499176 198.911423,424.868134 
	C194.087402,410.552307 189.986603,395.989655 185.020782,381.726044 
	C182.439651,374.312042 178.649826,367.325104 168.650116,366.203522 
M331.744598,498.730164 
	C339.541656,505.080780 346.090027,504.569885 352.353149,497.046906 
	C355.745972,492.971619 359.260742,488.972351 362.339417,484.666321 
	C369.079254,475.239807 375.576141,465.639526 382.989868,454.929016 
	C369.199219,450.985840 356.526917,447.362457 342.574921,443.373169 
	C339.540649,448.603729 335.635406,454.327057 332.749115,460.524902 
	C327.055115,472.751862 324.036011,485.318573 331.744598,498.730164 
M485.219971,687.196960 
	C502.986298,700.998535 520.727051,714.833313 538.551147,728.559814 
	C540.804077,730.294861 543.870117,733.041504 545.904236,732.558716 
	C550.018738,731.582336 553.683533,728.711182 557.809570,726.471619 
	C556.769531,725.478577 556.545288,725.230164 556.287720,725.023254 
	C532.347656,705.795715 508.338776,686.652832 484.512085,667.285828 
	C479.006927,662.811157 472.919037,661.368896 466.263672,662.244202 
	C463.012299,662.671875 458.806213,662.751831 458.231842,666.939453 
	C467.299744,673.739197 475.974945,680.244446 485.219971,687.196960 
M563.071899,721.372192 
	C565.285706,721.832275 567.608276,722.953186 569.689941,722.610535 
	C573.635620,721.960938 577.443237,720.472168 582.387756,719.013611 
	C580.931458,717.442932 580.001343,716.114563 578.775818,715.169189 
	C568.848206,707.511536 558.992310,699.751099 548.857544,692.374939 
	C541.173157,686.782104 534.201355,679.642273 523.954895,678.755737 
	C520.562927,678.462341 516.967712,678.148193 513.675903,681.303406 
	C530.320129,694.765991 546.445557,707.809082 563.071899,721.372192 
z"/>
<path fill="#FCFCFC" opacity="1.000000" stroke="none" 
	d="
M1.000000,57.468658 
	C7.293818,61.160179 13.686335,65.179512 19.862535,69.507538 
	C36.872139,81.427147 53.671196,93.650337 70.779587,105.425003 
	C88.039978,117.304260 105.558449,128.809158 122.988380,140.441299 
	C140.425003,152.077911 159.494308,160.388855 179.216858,167.125961 
	C206.569534,176.469482 234.078461,185.358337 261.558472,194.325485 
	C278.320892,199.795288 295.246033,204.778915 311.929352,210.475098 
	C327.006714,215.622940 338.666901,225.125137 345.784943,239.689972 
	C361.395599,271.632263 377.441071,303.372864 392.402100,335.616608 
	C398.570709,348.911041 404.939697,362.600433 404.161377,378.024475 
	C404.082428,379.588196 403.921021,381.147766 403.807434,382.587769 
	C394.680389,378.884735 385.887360,375.596802 377.362579,371.719086 
	C374.017120,370.197327 370.962463,367.670074 368.308350,365.058929 
	C357.673523,354.596313 347.553894,343.594238 336.671539,333.402618 
	C321.089081,318.809174 303.370209,306.391388 290.278625,289.288422 
	C282.833893,279.562500 276.596283,268.909607 269.873169,258.636108 
	C267.869476,255.574295 266.361694,252.132355 264.033936,249.362793 
	C262.944733,248.066879 259.934692,246.956284 258.723419,247.575974 
	C257.392944,248.256668 256.994019,250.988831 256.480133,252.905167 
	C256.308899,253.543686 256.974152,254.455490 257.360931,255.187454 
	C266.237579,271.986938 275.316345,288.827972 288.357910,302.713623 
	C299.230164,314.289581 311.771667,324.285675 323.403412,335.163727 
	C335.843292,346.797546 348.572937,358.185150 360.217316,370.580841 
	C366.634735,377.412231 372.875031,384.934845 375.135345,394.734192 
	C377.992584,407.121460 368.287384,424.624939 349.844055,420.166809 
	C338.907623,417.523285 328.958191,412.533813 320.154053,405.701233 
	C310.185364,397.964966 300.470856,389.839722 291.189514,381.293243 
	C276.197968,367.488739 261.503876,353.337830 241.894913,346.166992 
	C237.766663,344.657318 233.116318,343.983917 228.699341,343.953003 
	C203.619629,343.777466 182.088196,334.450500 162.478470,319.460968 
	C146.626495,307.343781 134.381058,292.365540 125.411133,274.643951 
	C123.886368,271.631531 121.306091,270.551941 118.974533,272.135254 
	C117.545929,273.105377 116.598091,276.573456 117.176529,278.353668 
	C118.579735,282.672272 121.001678,286.659821 123.143997,291.048889 
	C107.558968,296.939392 100.691711,309.761993 95.670715,324.973633 
	C92.891060,322.758881 90.546974,321.048309 88.379890,319.137024 
	C79.462624,311.272430 72.049271,302.236481 66.723061,291.521179 
	C58.523323,275.024933 44.001083,265.074249 29.052776,255.651825 
	C20.013563,249.954117 10.827933,244.488663 1.354048,238.959412 
	C1.000000,178.645767 1.000000,118.291542 1.000000,57.468658 
z"/>
<path fill="#FBFBFB" opacity="1.000000" stroke="none" 
	d="
M905.000000,898.531311 
	C896.818481,893.192993 888.467712,887.608154 880.491821,881.531189 
	C865.403503,870.035156 850.888245,857.753418 835.444336,846.768921 
	C824.847656,839.231934 813.474304,832.521606 801.748230,826.902100 
	C785.444946,819.089111 767.956360,820.216675 750.998718,824.559753 
	C727.258667,830.640076 703.834290,837.942505 680.175720,844.356506 
	C670.328857,847.026062 660.281616,849.073120 650.221985,850.800720 
	C643.218323,852.003601 635.819641,853.550659 628.993530,852.461548 
	C620.802734,851.154724 612.905273,847.522339 605.108643,844.338989 
	C591.157288,838.642578 577.283325,832.734741 563.547119,826.538330 
	C545.058777,818.198364 524.907715,813.331482 508.452942,800.723633 
	C493.433502,789.215454 478.332031,777.790161 463.745117,765.748779 
	C450.233032,754.594604 437.199860,742.841492 424.286530,730.991699 
	C420.176575,727.220276 416.682770,722.418945 419.011627,716.033691 
	C421.218536,709.982971 427.927094,705.781128 434.816711,705.108948 
	C448.177368,703.805359 458.149200,711.162903 468.382324,717.775208 
	C479.851868,725.186584 491.048889,733.018738 502.482056,740.487915 
	C511.284393,746.238281 520.320984,751.630310 529.113464,757.395142 
	C530.384277,758.228271 531.423767,760.183350 531.633301,761.744934 
	C533.414917,775.017944 541.536255,784.736816 554.714355,786.082214 
	C565.502991,787.183716 576.715942,787.164246 587.411255,785.510742 
	C609.322693,782.123108 631.039246,777.434814 652.784302,773.026978 
	C665.702454,770.408447 678.578735,769.232666 691.623779,771.836548 
	C693.083862,772.127991 694.858826,772.647034 696.040405,772.097900 
	C697.733093,771.311218 699.013733,769.638000 700.470337,768.343262 
	C699.200134,766.996765 698.119568,764.757751 696.630554,764.441467 
	C681.343506,761.194031 665.927490,760.507385 650.508911,763.478271 
	C635.971558,766.279419 621.370117,768.869629 606.999817,772.382568 
	C592.282104,775.980408 577.408020,777.385010 562.367859,777.736877 
	C556.421204,777.876038 550.647949,776.477722 546.487854,772.085876 
	C537.440857,762.534973 539.274048,749.147278 550.211060,741.624268 
	C558.404602,735.988342 567.550476,732.643677 577.053040,730.063660 
	C597.238586,724.583130 617.553772,719.520325 637.543335,713.396790 
	C653.008179,708.659302 666.725708,700.069641 680.563416,691.728699 
	C692.015747,684.825562 704.348267,679.465210 717.527771,676.207642 
	C728.428833,673.513184 739.336914,671.382629 750.579224,672.211487 
	C765.538269,673.314392 780.024170,676.328369 793.147156,684.112427 
	C813.405579,696.128967 833.484253,708.463867 853.987854,720.046509 
	C870.559326,729.407715 887.645447,737.857971 904.751587,746.356201 
	C905.000000,796.687561 905.000000,847.375122 905.000000,898.531311 
z"/>
<path fill="#FBFBFB" opacity="1.000000" stroke="none" 
	d="
M411.523560,452.357178 
	C391.240387,446.553619 371.324646,440.923920 351.400787,435.323151 
	C342.176331,432.730072 332.911316,430.278442 323.711853,427.600586 
	C317.738159,425.861725 311.837006,423.867920 305.937714,421.885986 
	C305.133728,421.615875 304.288422,420.885498 303.870880,420.139435 
	C300.140228,413.473938 296.491730,406.762268 292.861115,400.041473 
	C292.661530,399.672028 292.835327,399.100922 292.835327,397.860382 
	C297.441345,401.544891 301.555450,405.025940 305.864380,408.246246 
	C317.694580,417.087646 329.938202,425.252167 344.359619,429.339874 
	C375.727478,438.230927 390.548187,409.314789 383.288147,388.329651 
	C382.983948,387.450317 382.924896,386.486176 382.627930,384.901520 
	C428.516663,403.136536 473.762482,421.116028 519.771973,439.399017 
	C521.905884,431.572388 523.722656,424.384827 525.846741,417.289276 
	C527.456909,411.910278 528.947632,406.395538 531.419861,401.400665 
	C534.313110,395.554993 539.702332,392.324219 546.246460,391.905609 
	C549.559570,391.693695 550.523071,390.231140 550.787964,387.334595 
	C551.106262,383.853455 551.515076,380.363312 552.182251,376.934967 
	C553.488770,370.220886 553.628906,365.031342 546.700623,359.929596 
	C537.236816,352.960815 538.274414,333.127441 546.714355,323.899719 
	C554.145569,315.774963 562.879639,314.279419 572.831360,317.830963 
	C601.511292,328.066132 630.152161,338.411194 658.840210,348.623566 
	C669.070374,352.265289 679.346680,355.790588 689.681152,359.123260 
	C710.728088,365.910461 711.742920,392.361084 700.287842,404.051636 
	C694.096558,410.370178 689.619141,412.067322 682.034607,411.050873 
	C678.784424,417.951904 675.356323,424.938751 672.284790,432.078949 
	C671.843933,433.103821 672.697510,435.343658 673.672485,436.216583 
	C682.480469,444.102692 683.518311,453.587158 680.494263,464.427368 
	C671.505249,496.649384 662.760193,528.939453 653.926208,561.204712 
	C651.706970,569.310364 648.242249,577.355225 639.391724,578.880310 
	C631.998718,580.154236 631.192993,584.179993 630.843567,589.789062 
	C630.729980,591.612854 630.402588,593.428223 630.094849,595.234131 
	C629.069885,601.248291 628.905212,605.797668 634.657471,611.094666 
	C648.003479,623.384277 640.700317,652.003662 621.690125,655.236633 
	C617.979065,655.867737 613.716614,655.245728 610.090393,654.046753 
	C593.213501,648.466431 576.464722,642.497681 559.681396,636.635376 
	C537.694458,628.955383 515.663757,621.395874 493.753052,613.503784 
	C473.204559,606.102356 466.978668,586.518677 479.277252,568.854858 
	C483.254364,563.142761 489.126221,561.215149 495.642181,561.298767 
	C498.487091,561.335205 499.753174,560.591003 500.749054,557.981567 
	C503.000824,552.081360 505.731995,546.363770 507.966949,540.457825 
	C508.398285,539.317932 507.946075,537.117859 507.070099,536.322571 
	C499.232086,529.205811 497.327301,520.451538 499.778809,510.571655 
	C502.261169,500.567352 505.067627,490.643494 507.847565,480.252991 
	C475.837341,471.009491 443.862488,461.776184 411.523560,452.357178 
z"/>
<path fill="#F6F6F6" opacity="1.000000" stroke="none" 
	d="
M127.885895,374.653137 
	C112.567749,371.074066 104.615105,361.688446 103.445526,346.009613 
	C102.465919,332.877380 105.887215,320.678772 113.515327,310.220062 
	C116.595131,305.997406 122.332901,303.634491 127.078400,300.787445 
	C127.822113,300.341248 130.045975,301.502808 131.044708,302.475891 
	C139.704544,310.913483 147.503128,320.422028 156.963074,327.813568 
	C178.468796,344.617126 202.785706,354.648315 230.690781,354.326447 
	C237.838684,354.244019 244.276779,357.490387 250.017624,361.185516 
	C258.557587,366.682190 266.463715,373.166870 274.597839,379.286560 
	C275.531952,379.989319 276.199524,381.046387 276.841858,382.597900 
	C263.776703,375.347809 253.051529,378.727600 243.629349,389.440369 
	C240.425491,383.721405 237.672089,378.266022 234.421082,373.125305 
	C229.051071,364.633820 221.645660,359.339264 211.096725,359.514923 
	C205.503601,359.608063 200.769180,361.496002 196.998276,365.691010 
	C195.242676,367.644073 193.438858,369.553772 191.450897,371.706146 
	C184.999863,361.920349 177.515442,353.622162 164.645187,356.759125 
	C153.250824,359.536407 148.873825,368.543762 147.680389,380.271149 
	C141.044952,378.379883 134.664703,376.561340 127.885895,374.653137 
z"/>
<path fill="#F9F9F9" opacity="1.000000" stroke="none" 
	d="
M284.707581,471.638733 
	C277.442383,467.090271 271.392426,461.843567 268.037628,454.143311 
	C263.861816,444.558594 259.653717,434.982574 255.762680,425.281189 
	C253.421906,419.445068 251.469681,413.433228 249.683945,407.399414 
	C247.547653,400.181122 250.966537,394.762115 256.301483,390.463257 
	C259.848389,387.605194 268.136353,388.887146 273.150330,392.326202 
	C281.873474,398.309357 285.778564,407.812256 290.908020,416.403290 
	C293.031250,419.959381 294.423035,423.966675 296.675354,427.424957 
	C297.771454,429.107910 299.910767,430.511261 301.870087,431.164337 
	C311.386627,434.336517 321.002167,437.211731 331.509857,440.480591 
	C326.828949,448.595337 322.959045,456.282898 318.080475,463.265717 
	C316.204895,465.950287 312.173798,467.361389 308.876709,468.773224 
	C301.282623,472.025055 293.440491,474.136505 284.707581,471.638733 
z"/>
<path fill="#F9F9F9" opacity="1.000000" stroke="none" 
	d="
M210.381226,369.406799 
	C219.435822,369.362335 224.806793,374.625397 228.188995,381.628510 
	C232.858231,391.296417 236.793579,401.331177 240.769394,411.317841 
	C244.337555,420.280487 247.352448,429.464081 250.948547,438.414734 
	C254.540695,447.355530 258.551208,456.128296 262.684692,465.682922 
	C258.099243,467.620941 253.578613,470.196411 248.717331,471.437042 
	C240.549225,473.521637 234.193848,468.925323 229.413025,463.310486 
	C219.345657,451.486725 211.794235,438.169556 207.980011,422.847015 
	C205.411850,412.530273 201.644241,402.504486 199.257233,392.153870 
	C198.266327,387.857056 198.738312,382.857819 199.882782,378.531891 
	C201.134415,373.800903 204.638885,370.289825 210.381226,369.406799 
z"/>
<path fill="#F5F5F5" opacity="1.000000" stroke="none" 
	d="
M414.285767,667.189575 
	C419.063324,660.576538 433.911957,660.539368 441.849701,665.851929 
	C453.808594,673.855774 465.829346,681.800049 477.394653,690.350098 
	C490.208923,699.823547 502.512909,709.985291 515.093872,719.776917 
	C521.210571,724.537354 527.475098,729.107361 533.623413,733.827759 
	C535.544922,735.302917 537.305359,736.987793 539.084045,738.528687 
	C536.870789,742.188293 534.920410,745.413208 532.671997,749.130920 
	C528.797119,746.643677 525.001465,744.176575 521.175293,741.757751 
	C513.191956,736.710815 505.159485,731.740906 497.207550,726.645203 
	C485.559326,719.180969 473.913574,711.710632 462.360809,704.100098 
	C451.299530,696.813416 439.348206,695.334045 426.575409,697.819641 
	C425.028198,698.120789 422.741333,697.539246 421.605835,696.490967 
	C418.194489,693.341736 415.028564,689.888184 412.049011,686.317993 
	C406.288391,679.415344 406.993896,673.236755 414.285767,667.189575 
z"/>
<path fill="#F8F8F8" opacity="1.000000" stroke="none" 
	d="
M169.045029,366.195679 
	C178.649826,367.325104 182.439651,374.312042 185.020782,381.726044 
	C189.986603,395.989655 194.087402,410.552307 198.911423,424.868134 
	C201.819839,433.499176 205.163864,442.008972 208.822189,450.349548 
	C210.335617,453.799988 209.735641,455.355774 206.580322,456.896667 
	C198.447388,460.868378 188.995987,458.753326 182.501831,452.455048 
	C170.186646,440.511261 165.094971,425.381561 162.004333,409.178253 
	C160.664993,402.156525 159.088470,395.179291 157.804047,388.148193 
	C157.329666,385.551422 157.144653,382.849060 157.242950,380.210297 
	C157.548096,372.018677 160.634155,368.342010 169.045029,366.195679 
z"/>
<path fill="#F7F7F7" opacity="1.000000" stroke="none" 
	d="
M331.512573,498.444305 
	C324.036011,485.318573 327.055115,472.751862 332.749115,460.524902 
	C335.635406,454.327057 339.540649,448.603729 342.574921,443.373169 
	C356.526917,447.362457 369.199219,450.985840 382.989868,454.929016 
	C375.576141,465.639526 369.079254,475.239807 362.339417,484.666321 
	C359.260742,488.972351 355.745972,492.971619 352.353149,497.046906 
	C346.090027,504.569885 339.541656,505.080780 331.512573,498.444305 
z"/>
<path fill="#F2F2F2" opacity="1.000000" stroke="none" 
	d="
M484.935059,686.973389 
	C475.974945,680.244446 467.299744,673.739197 458.231842,666.939453 
	C458.806213,662.751831 463.012299,662.671875 466.263672,662.244202 
	C472.919037,661.368896 479.006927,662.811157 484.512085,667.285828 
	C508.338776,686.652832 532.347656,705.795715 556.287720,725.023254 
	C556.545288,725.230164 556.769531,725.478577 557.809570,726.471619 
	C553.683533,728.711182 550.018738,731.582336 545.904236,732.558716 
	C543.870117,733.041504 540.804077,730.294861 538.551147,728.559814 
	C520.727051,714.833313 502.986298,700.998535 484.935059,686.973389 
z"/>
<path fill="#EEEEEE" opacity="1.000000" stroke="none" 
	d="
M562.821411,721.112183 
	C546.445557,707.809082 530.320129,694.765991 513.675903,681.303406 
	C516.967712,678.148193 520.562927,678.462341 523.954895,678.755737 
	C534.201355,679.642273 541.173157,686.782104 548.857544,692.374939 
	C558.992310,699.751099 568.848206,707.511536 578.775818,715.169189 
	C580.001343,716.114563 580.931458,717.442932 582.387756,719.013611 
	C577.443237,720.472168 573.635620,721.960938 569.689941,722.610535 
	C567.608276,722.953186 565.285706,721.832275 562.821411,721.112183 
z"/>
</svg>